<?xml version="1.0" encoding="UTF-8" standalone="no"?>
<svg width="175px" height="84px" viewBox="0 0 175 84" version="1.1" xmlns="http://www.w3.org/2000/svg" xmlns:xlink="http://www.w3.org/1999/xlink" xmlns:sketch="http://www.bohemiancoding.com/sketch/ns">
    <!-- Generator: Sketch 3.3.3 (12072) - http://www.bohemiancoding.com/sketch -->
    <title>starwars</title>
    <desc>Created with Sketch.</desc>
    <defs></defs>
    <g id="Page-1" stroke="none" stroke-width="1" fill="none" fill-rule="evenodd" sketch:type="MSPage">
        <g id="Desktop-Copy-2" sketch:type="MSArtboardGroup" transform="translate(-482.000000, -70.000000)" fill="#FFFFFF">
            <path d="M530.736506,70 L526.044465,70 L506.503951,70 C501.493315,70 498.517613,72.4329099 497.573627,77.2976569 C496.628568,82.1613313 499.31571,87.4980714 505.632909,93.3068047 C509.462489,96.3200515 508.810281,97.7542669 503.673065,97.6094509 L482,97.6094509 L482,109.315952 L516.305317,109.315952 C521.968161,108.373039 524.853755,105.468136 524.963172,100.603389 C525.072588,95.7386418 522.185922,90.7290787 516.305317,85.5736268 C513.020674,82.8510848 513.710427,81.5627582 518.374577,81.7075743 L526.043392,81.7075743 L530.735433,81.7075743 L538.512592,81.7075743 L538.512592,109.31488 L551.310041,109.31488 L551.310041,81.7075743 L563.780313,81.7075743 L563.780313,70 L530.736506,70 Z M561.348476,109.31488 L574.281087,70 L593.803365,70 L606.954809,109.31488 L592.088099,109.31488 L589.611208,102.236056 L577.930452,102.236056 L575.451415,109.31488 L561.348476,109.31488 Z M584.084598,78.7125635 L578.448572,94.2872631 L589.285104,94.2872631 L584.084598,78.7125635 Z M606.374472,109.31488 L606.374472,70 L631.966153,70 C635.125288,70.2907048 637.72125,71.1242017 639.754039,72.5047816 C641.7879,73.8842887 643.275751,75.7357889 644.22081,78.0592822 C644.945963,81.5445221 644.981362,84.2305919 644.328081,86.1185643 C643.6748,88.0065367 642.532362,89.5855682 640.898622,90.8567314 C639.264882,92.1268219 636.92208,93.1255164 633.875579,93.8506695 L636.812664,97.6094509 L656.022783,97.6094509 L656.022783,109.315952 L633.056028,109.315952 L620.585755,96.3286332 L620.585755,109.315952 L606.374472,109.315952 L606.374472,109.31488 Z M620.585755,79.8013658 L620.585755,87.0432417 L630.497611,87.0432417 C631.023239,87.0432417 631.594995,86.8490809 632.211804,86.4586139 C632.829686,86.0681469 633.156863,85.0844704 633.194408,83.5043662 C633.102154,81.9982791 632.733142,81.0038755 632.090587,80.5233007 C631.444815,80.0427259 630.905241,79.8024385 630.470793,79.8024385 L620.585755,79.8024385 L620.585755,79.8013658 Z M510.914941,136.69477 L506.77642,153.357199 L493.97897,153.357199 L482,114.040174 L494.796377,114.040174 L500.186752,131.031926 L504.869138,114.040174 L516.631421,114.040174 L522.105468,131.031926 L525.75376,114.040174 L538.550137,114.040174 L528.694063,153.357199 L515.896613,153.357199 L510.914941,136.69477 Z M532.678114,153.357199 L545.610724,114.040174 L565.133003,114.040174 L578.284447,153.357199 L563.416664,153.357199 L560.939773,146.277303 L549.260089,146.277303 L546.781053,153.357199 L532.678114,153.357199 Z M555.413163,122.75381 L549.777136,138.327437 L560.613669,138.327437 L555.413163,122.75381 Z M641.252617,125.747749 L655.936966,125.686604 L655.936966,113.97903 L629.380918,114.040174 C624.369209,114.040174 621.39458,116.473084 620.449521,121.337831 C619.506608,126.202578 622.192677,131.539318 628.509876,137.346979 C632.339456,140.362371 631.686175,141.794441 626.548959,141.650698 L608.143374,141.650698 L605.201999,137.891916 C608.25279,137.166763 610.59452,136.168069 612.229332,134.897978 C613.860927,133.625742 615.00551,132.048856 615.658791,130.160884 C616.309927,128.270766 616.274528,125.584696 615.549375,122.100529 C614.606461,119.777036 613.116465,117.926608 611.084749,116.546029 C609.050888,115.165449 606.457071,114.331952 603.296863,114.040174 L577.701964,114.040174 L577.701964,153.357199 L591.915393,153.357199 L591.915393,140.36988 L604.385665,153.357199 L604.875894,153.357199 L629.163157,153.357199 L639.182284,153.357199 C644.847273,152.41214 647.730722,149.50831 647.839066,144.643563 C647.94741,139.778816 645.062889,134.769253 639.182284,129.614874 C635.898713,126.892332 636.586322,125.602932 641.252617,125.747749 Z M603.541441,130.499861 C602.923559,130.889255 602.353949,131.086634 601.825103,131.086634 L591.915393,131.086634 L591.915393,123.843685 L601.798285,123.843685 C602.235951,123.843685 602.774452,124.0829 603.418079,124.564548 C604.063852,125.046195 604.431792,126.039526 604.521899,127.545613 C604.484355,129.125717 604.160396,130.110467 603.541441,130.499861 L603.541441,130.499861 L603.541441,130.499861 Z" id="starwars" sketch:type="MSShapeGroup"></path>
        </g>
    </g>
</svg>