<svg width="175" height="84" viewBox="0 0 175 84" xmlns="http://www.w3.org/2000/svg"><title>starwars</title><path d="M48.737 0H24.504c-5.01 0-7.986 2.433-8.93 7.298-.945 4.863 1.742 10.2 8.06 16.01 3.828 3.012 3.176 4.446-1.96 4.3H0v11.708h34.305c5.663-.943 8.55-3.848 8.658-8.713.11-4.864-2.777-9.874-8.658-15.03-3.284-2.722-2.595-4.01 2.07-3.865H56.513v27.607H69.31V11.708h12.47V0H48.737zm30.61 39.315L92.282 0h19.523l13.152 39.315h-14.867l-2.477-7.08H95.93l-2.48 7.08H79.35zm22.738-30.602L96.45 24.287h10.835l-5.2-15.574zm22.29 30.602V0h25.59c3.16.29 5.756 1.124 7.79 2.505 2.033 1.38 3.52 3.23 4.466 5.554.726 3.485.76 6.17.108 8.06-.653 1.887-1.796 3.466-3.43 4.737-1.633 1.27-3.976 2.27-7.022 2.994l2.937 3.76h19.21v11.706h-22.967l-12.47-12.987v12.986h-14.212zM138.584 9.8v7.243h9.913c.525 0 1.097-.194 1.714-.584.618-.392.945-1.376.982-2.956-.092-1.506-.46-2.5-1.103-2.98-.645-.48-1.185-.722-1.62-.722h-9.884zM28.916 66.696l-4.14 16.662H11.98L0 44.04h12.796l5.39 16.992L22.87 44.04h11.76l5.475 16.992 3.65-16.992H56.55l-9.856 39.317H33.897l-4.982-16.662zm21.763 16.662L63.61 44.04h19.523l13.15 39.317H81.418l-2.477-7.08H67.26l-2.48 7.08H50.68zm22.735-30.603l-5.636 15.573h10.837l-5.2-15.573zm85.84 2.994l14.684-.06v-11.71l-26.556.062c-5.01 0-7.985 2.433-8.93 7.298-.943 4.865 1.743 10.2 8.06 16.01 3.83 3.014 3.176 4.446-1.96 4.303h-18.407l-2.94-3.758c3.05-.725 5.392-1.724 7.026-2.994 1.63-1.272 2.776-2.85 3.43-4.737.65-1.89.615-4.575-.11-8.06-.944-2.323-2.434-4.173-4.465-5.554-2.034-1.38-4.628-2.214-7.788-2.506H95.702v39.317h14.213V70.37l12.47 12.987h34.798c5.664-.945 8.548-3.85 8.656-8.713.107-4.865-2.777-9.875-8.658-15.03-3.283-2.722-2.596-4.01 2.07-3.866zM121.54 60.5c-.616.39-1.186.587-1.715.587h-9.91v-7.243h9.883c.438 0 .976.24 1.62.72.646.482 1.014 1.476 1.104 2.982-.038 1.58-.362 2.564-.98 2.954z" fill="#FFF" fill-rule="evenodd"/></svg>